PathFileType	4	(X/Y/Z)	c:/Users/goper/Files/vsCode/490R/osim_files/A03/A03_SSWS_04.trc
DataRate	CameraRate	NumFrames	NumMarkers	Units                	OrigDataRate	OrigDataStartFrame	OrigNumFrames
250.00	250.00	6	36	mm	250.0	1719	2750
                Frame#	Time	LPSIS			LASIS			LTH1			LTH2			LTH3			LTH4			LLFE			LMFE			LSH1			LSH2			LSH3			LSH4			LLMAL			LMMAL			LCAL			LMTP5			LTOE			LMTP1			RPSIS			RASIS			RTH1			RTH2			RTH3			RTH4			RLFE			RMFE			RSH1			RSH2			RSH3			RSH4			RLMAL			RMMAL			RCAL			RMTP1			RTOE			RMTP5		
		X1	Y1	Z1	X2	Y2	Z2	X3	Y3	Z3	X4	Y4	Z4	X5	Y5	Z5	X6	Y6	Z6	X7	Y7	Z7	X8	Y8	Z8	X9	Y9	Z9	X10	Y10	Z10	X11	Y11	Z11	X12	Y12	Z12	X13	Y13	Z13	X14	Y14	Z14	X15	Y15	Z15	X16	Y16	Z16	X17	Y17	Z17	X18	Y18	Z18	X19	Y19	Z19	X20	Y20	Z20	X21	Y21	Z21	X22	Y22	Z22	X23	Y23	Z23	X24	Y24	Z24	X25	Y25	Z25	X26	Y26	Z26	X27	Y27	Z27	X28	Y28	Z28	X29	Y29	Z29	X30	Y30	Z30	X31	Y31	Z31	X32	Y32	Z32	X33	Y33	Z33	X34	Y34	Z34	X35	Y35	Z35	X36	Y36	Z36

1719	6.87200	-2288.92114	1024.01147	277.36899	-2509.53247	939.42432	423.46652	-2417.78174	596.65100	501.57590	-2416.84326	555.28229	502.95822	-2477.59961	590.01385	490.41095	-2468.92261	546.87598	496.32697	-2399.79639	494.77197	500.56525	-2427.97290	468.63885	349.40512	-2307.47192	468.04645	489.02194	-2273.00684	434.48456	484.46994	-2344.55835	417.15692	488.27386	-2304.49438	393.66428	478.13821	-2032.84790	220.01233	427.15179	-2054.05103	213.10832	330.12027	-1979.55505	258.40286	367.03354	-2089.12207	70.20650	445.76505	-2137.97119	72.02796	382.09027	-2106.32373	77.03471	331.74554	-2294.70874	1029.12219	196.75349	-2543.48438	962.63708	135.32841	-2586.62280	603.66058	77.61621	-2606.92871	568.88672	79.81610	-2646.54248	629.73907	80.52425	-2655.77856	587.18689	89.74390	-2635.28442	541.98633	98.10410	-2661.77295	556.90698	218.15654	-2594.29272	470.64761	89.35402	-2596.81787	429.44296	78.59530	-2657.24561	467.01990	92.09917	-2650.12695	421.66336	82.90436	-2610.70630	123.58297	136.16057	-2645.45728	115.15063	226.05411	-2553.51855	88.28161	192.55315	-2765.75391	50.33374	234.06448	-2795.46191	74.59949	187.10643	-2763.10132	45.28090	115.39021
1720	6.87600	-2292.84351	1024.70312	276.44711	-2514.62549	940.31635	423.60800	-2427.82300	596.51605	502.10477	-2426.96875	555.28204	503.55292	-2487.63647	590.30298	490.95911	-2479.34424	547.12769	496.89407	-2409.84814	494.86203	501.22104	-2440.04663	467.36819	350.33908	-2317.61255	469.12506	488.84369	-2282.71240	436.09210	484.28046	-2353.89917	417.62399	488.60150	-2312.47412	394.86722	479.65070	-2040.03552	225.02521	426.14954	-2061.29443	217.26425	329.35715	-1987.82019	264.57761	365.74338	-2092.22144	73.76608	445.51019	-2141.40625	73.28655	382.19492	-2110.26855	79.39941	331.86444	-2298.43115	1030.53394	195.33720	-2548.67505	963.18872	133.43646	-2589.65942	603.58441	77.27676	-2609.76001	568.87329	79.49100	-2649.68628	629.53052	80.07182	-2658.76733	587.00745	89.34933	-2638.12939	541.86407	97.83595	-2664.34131	556.99261	217.87915	-2597.03149	470.90274	89.09149	-2599.24976	429.68314	78.33635	-2659.86890	466.90707	91.96453	-2653.33691	421.58789	82.94791	-2610.96509	123.65891	136.28680	-2644.75732	115.51254	226.23717	-2553.56592	88.30479	192.63463	-2765.80444	50.18844	234.13417	-2795.25220	74.13953	186.99063	-2763.29297	45.20363	115.48041
1721	6.88000	-2298.42261	1025.13513	275.24182	-2517.37305	940.86835	420.63968	-2437.76709	596.70312	502.41122	-2437.07129	555.39172	504.08804	-2497.65820	590.78186	491.42178	-2489.59668	547.52435	497.22006	-2420.21411	494.78458	501.31195	-2450.86572	466.33154	350.66556	-2327.75732	470.30264	488.55887	-2292.41821	437.85098	483.92517	-2363.30078	418.36417	488.81079	-2321.61914	396.16827	479.57126	-2047.44604	229.98343	425.13773	-2068.81396	221.25101	328.64398	-1996.52490	270.58929	364.37476	-2095.62524	77.33781	445.37296	-2145.23071	74.57159	382.45502	-2114.56055	81.76226	332.09180	-2303.06519	1031.53101	194.30699	-2555.01978	963.91168	130.90082	-2592.67944	603.71173	76.85954	-2612.56079	569.01056	79.18973	-2652.70093	629.50720	79.62842	-2662.01978	587.18744	89.04774	-2640.92554	541.94855	97.52278	-2666.86011	557.16016	217.67746	-2599.66943	471.14578	88.80587	-2601.72266	429.90353	78.05778	-2662.47754	466.80991	91.81389	-2654.81226	421.44534	82.70045	-2611.16675	123.72138	136.36957	-2644.89795	115.64499	226.41611	-2553.54907	88.34122	192.65771	-2765.88574	50.10811	234.20375	-2795.35596	73.91005	187.01816	-2763.31299	45.16470	115.54095
1722	6.88400	-2302.95044	1025.89160	274.34076	-2523.05591	942.06061	419.24573	-2447.56177	596.79608	502.76990	-2447.13428	555.61816	504.55869	-2507.47656	591.44287	491.73093	-2499.70020	548.15912	497.46790	-2430.59912	495.00879	501.24359	-2461.75293	465.49207	350.85846	-2337.89819	471.69275	488.10510	-2302.29028	439.58347	483.56989	-2372.70532	419.21765	488.91144	-2331.02881	397.65594	479.43680	-2055.16211	234.79774	424.10455	-2076.79321	225.11824	327.92514	-2005.40552	276.32178	362.90201	-2099.43286	81.08621	445.53949	-2149.47583	76.27795	383.04694	-2119.27417	84.13425	332.77133	-2308.45068	1032.11060	193.61084	-2562.69727	964.83710	127.64313	-2595.77734	604.10822	76.13105	-2615.26343	569.22913	78.80935	-2655.62891	629.57825	79.15968	-2664.50244	587.17188	88.51324	-2643.65918	542.16309	97.17411	-2669.28369	557.30969	217.43710	-2602.28784	471.37241	88.47868	-2604.02197	430.10608	77.76947	-2664.97119	466.67108	91.66322	-2657.07935	421.33575	82.58824	-2611.40894	123.82656	136.43857	-2644.85840	115.59113	226.44261	-2553.58008	88.36916	192.70161	-2765.96558	50.02358	234.22916	-2795.42749	73.72167	187.01411	-2763.33716	45.18818	115.51964
1723	6.88800	-2307.66992	1026.60266	273.55441	-2528.73535	943.06970	419.16547	-2457.13647	597.18945	502.78146	-2457.14136	555.96820	504.95996	-2517.21875	592.31970	491.98288	-2509.84497	549.31500	496.86209	-2440.93799	495.51743	501.08734	-2472.72119	464.83975	351.05585	-2347.97974	473.25305	487.55771	-2312.03979	441.57019	483.07071	-2382.23193	420.36148	488.92978	-2340.04077	399.29947	479.19009	-2062.67334	239.67998	423.24051	-2084.70679	228.88234	327.11310	-2014.17676	281.61948	361.38950	-2104.18872	85.38530	445.92572	-2154.19727	79.29443	383.81335	-2124.70654	87.34925	333.28726	-2313.61816	1033.40857	192.31938	-2571.88550	965.99597	123.58502	-2598.86353	604.62317	75.27670	-2617.97021	569.54816	78.34643	-2658.58569	629.76160	78.74576	-2667.26099	587.35278	88.07802	-2646.26050	542.34747	96.88416	-2671.65918	557.40521	217.13631	-2604.71143	471.54660	88.17621	-2607.25488	430.24075	77.33203	-2667.30957	466.49051	91.50375	-2659.25269	421.20770	82.49239	-2611.61987	123.91813	136.43689	-2644.81445	115.35894	226.41463	-2553.51416	88.10429	192.84048	-2765.99268	49.95328	234.26715	-2795.54346	73.56725	187.04025	-2763.36353	45.13473	115.50806
1724	6.89200	-2311.84351	1027.57666	272.76208	-2533.65015	943.86676	418.65677	-2466.59570	597.76758	502.74606	-2467.07568	556.44861	505.28690	-2526.70117	593.32660	492.07111	-2519.70850	550.29010	496.92703	-2451.10620	496.26712	500.78952	-2483.50537	464.28491	351.20526	-2357.98413	475.07373	486.85504	-2321.77612	443.74207	482.54535	-2391.56494	421.78659	488.91046	-2349.49780	401.17303	478.91635	-2070.25317	244.57724	422.36331	-2093.06104	232.54663	326.73148	-2022.90442	286.50745	359.74927	-2109.98022	89.98011	446.46323	-2160.59448	82.90309	384.85672	-2131.37598	90.87196	334.01477	-2318.89111	1034.10962	191.68617	-2581.16479	967.19629	119.62316	-2601.92358	605.23694	74.32091	-2620.55859	569.85718	77.92535	-2661.46118	629.89832	78.29778	-2669.99585	587.52313	87.62152	-2648.75635	542.48822	96.58392	-2673.89136	557.40887	216.86665	-2607.02954	471.71494	87.89436	-2608.40039	430.42004	77.25299	-2669.59180	466.39761	91.33726	-2661.30933	421.06229	82.39606	-2611.82202	123.99232	136.45631	-2644.70361	114.94754	226.24149	-2553.57642	88.16913	192.85080	-2766.03589	49.90434	234.30302	-2795.64331	73.48653	187.03786	-2763.39087	45.11742	115.51539
